<svg xmlns="http://www.w3.org/2000/svg" viewBox="0 0 800 450">
  <defs>
    <linearGradient id="g" x1="0%" y1="0%" x2="100%" y2="100%">
      <stop offset="0%" style="stop-color:#FF9A9E"/>
      <stop offset="100%" style="stop-color:#FECFEF"/>
    </linearGradient>
    <filter id="ds" x="-50%" y="-50%" width="200%" height="200%">
      <feDropShadow dx="0" dy="2" stdDeviation="3" flood-color="#000" flood-opacity="0.2"/>
    </filter>
  </defs>
  <rect width="800" height="450" fill="url(#g)"/>
  <g fill="#fff" filter="url(#ds)" transform="translate(322,147) scale(6.5)">
    <path d="M12,19.75a.75.75,0,0,1-.53-.22L4.7,12.74a5,5,0,0,1,0-7,4.95,4.95,0,0,1,7,0L12,6l.28-.28a4.92,4.92,0,0,1,3.51-1.46h0A4.92,4.92,0,0,1,19.3,5.71h0a5,5,0,0,1,0,7l-6.77,6.79A.75.75,0,0,1,12,19.75Zm-3.79-14a3.44,3.44,0,0,0-2.45,1,3.48,3.48,0,0,0,0,4.91L12,17.94l6.23-6.26a3.47,3.47,0,0,0,0-4.91h0a3.4,3.4,0,0,0-2.44-1h0a3.44,3.44,0,0,0-2.45,1l-.81.81a.77.77,0,0,1-1.06,0l-.81-.81A3.44,3.44,0,0,0,8.21,5.75Z"/>
  </g>
</svg>
