<svg xmlns="http://www.w3.org/2000/svg" viewBox="0 0 800 450">
  <defs>
    <linearGradient id="g" x1="0%" y1="0%" x2="100%" y2="100%">
      <stop offset="0%" style="stop-color:#373B44"/>
      <stop offset="100%" style="stop-color:#4286F4"/>
    </linearGradient>
    <filter id="ds" x="-50%" y="-50%" width="200%" height="200%">
      <feDropShadow dx="0" dy="2" stdDeviation="3" flood-color="#000" flood-opacity="0.2"/>
    </filter>
  </defs>
  <rect width="800" height="450" fill="url(#g)"/>
  <g fill="#fff" filter="url(#ds)" transform="translate(322,147) scale(6.5)">
    <path d="M18,4.25H6A2.75,2.75,0,0,0,3.25,7V17A2.75,2.75,0,0,0,6,19.75H18A2.75,2.75,0,0,0,20.75,17V7A2.75,2.75,0,0,0,18,4.25ZM19.25,7v4.25h-6.5V5.75H18A1.25,1.25,0,0,1,19.25,7ZM6,5.75h5.25v5.5H4.75V7A1.25,1.25,0,0,1,6,5.75ZM4.75,17V12.75h6.5v5.5H6A1.25,1.25,0,0,1,4.75,17ZM18,18.25H12.75v-5.5h6.5V17A1.25,1.25,0,0,1,18,18.25Z"/>
  </g>
</svg>
