<svg xmlns="http://www.w3.org/2000/svg" viewBox="0 0 800 450">
  <defs>
    <linearGradient id="g" x1="0%" y1="0%" x2="100%" y2="100%">
      <stop offset="0%" style="stop-color:#F7971E"/>
      <stop offset="100%" style="stop-color:#FFD200"/>
    </linearGradient>
    <filter id="ds" x="-50%" y="-50%" width="200%" height="200%">
      <feDropShadow dx="0" dy="2" stdDeviation="3" flood-color="#000" flood-opacity="0.2"/>
    </filter>
  </defs>
  <rect width="800" height="450" fill="url(#g)"/>
  <g fill="#fff" filter="url(#ds)" transform="translate(322,147) scale(6.5)">
    <path d="M9,11.25H6A2.25,2.25,0,0,1,3.75,9V6A2.25,2.25,0,0,1,6,3.75H9A2.25,2.25,0,0,1,11.25,6V9A2.25,2.25,0,0,1,9,11.25Zm-3-6A.76.76,0,0,0,5.25,6V9A.76.76,0,0,0,6,9.75H9A.76.76,0,0,0,9.75,9V6A.76.76,0,0,0,9,5.25Z"/>
    <path d="M9,20.25H6A2.25,2.25,0,0,1,3.75,18V15A2.25,2.25,0,0,1,6,12.75H9A2.25,2.25,0,0,1,11.25,15v3A2.25,2.25,0,0,1,9,20.25Zm-3-6a.76.76,0,0,0-.75.75v3a.76.76,0,0,0,.75.75H9A.76.76,0,0,0,9.75,18V15A.76.76,0,0,0,9,14.25Z"/>
    <path d="M18,11.25H15A2.25,2.25,0,0,1,12.75,9V6A2.25,2.25,0,0,1,15,3.75h3A2.25,2.25,0,0,1,20.25,6V9A2.25,2.25,0,0,1,18,11.25Zm-3-6a.76.76,0,0,0-.75.75V9a.76.76,0,0,0,.75.75h3A.76.76,0,0,0,18.75,9V6A.76.76,0,0,0,18,5.25Z"/>
    <path d="M18,20.25H15A2.25,2.25,0,0,1,12.75,18V15A2.25,2.25,0,0,1,15,12.75h3A2.25,2.25,0,0,1,20.25,15v3A2.25,2.25,0,0,1,18,20.25Zm-3-6a.76.76,0,0,0-.75.75v3a.76.76,0,0,0,.75.75h3a.76.76,0,0,0,.75-.75V15a.76.76,0,0,0-.75-.75Z"/>
  </g>
</svg>
